<mxfile host="www.draw.io" modified="2019-10-24T18:38:47.598Z" agent="Mozilla/5.0 (Windows NT 10.0; Win64; x64) AppleWebKit/537.36 (KHTML, like Gecko) Chrome/77.0.3865.120 Safari/537.36" etag="L9GrtQYndTVteC_CMiN2" version="12.1.4" type="github" pages="1">
  <diagram name="Page-1" id="4fc8d65c-f3f6-feb3-4d1c-02f59d9f9886">
    <mxGraphModel dx="1024" dy="534" grid="1" gridSize="10" guides="1" tooltips="1" connect="1" arrows="1" fold="1" page="1" pageScale="1" pageWidth="826" pageHeight="1169" background="#ffffff" math="0" shadow="0">
      <root>
        <mxCell id="0"/>
        <mxCell id="1" parent="0"/>
        <mxCell id="9" value="" style="edgeStyle=none;strokeWidth=4" parent="1" edge="1">
          <mxGeometry width="100" height="100" relative="1" as="geometry">
            <mxPoint x="120" y="281" as="sourcePoint"/>
            <mxPoint x="800" y="280.5" as="targetPoint"/>
          </mxGeometry>
        </mxCell>
        <mxCell id="143" value="Area 2" style="whiteSpace=wrap;strokeWidth=2" parent="1" vertex="1">
          <mxGeometry x="280" y="109.99999999999994" width="120" height="60" as="geometry"/>
        </mxCell>
        <mxCell id="144" value="Area 5" style="whiteSpace=wrap;strokeWidth=2" parent="1" vertex="1">
          <mxGeometry x="380" y="400.49999999999994" width="120" height="60" as="geometry"/>
        </mxCell>
        <mxCell id="145" value="" style="edgeStyle=none;exitX=0.5;exitY=1;strokeWidth=3" parent="1" source="143" edge="1">
          <mxGeometry width="100" height="100" relative="1" as="geometry">
            <mxPoint x="340" y="189.99999999999991" as="sourcePoint"/>
            <mxPoint x="400" y="279.99999999999994" as="targetPoint"/>
          </mxGeometry>
        </mxCell>
        <mxCell id="146" value="" style="edgeStyle=none;exitX=0.5;exitY=0;strokeWidth=3" parent="1" edge="1">
          <mxGeometry width="100" height="100" relative="1" as="geometry">
            <mxPoint x="440.0000000000001" y="400.49999999999994" as="sourcePoint"/>
            <mxPoint x="500" y="280.49999999999994" as="targetPoint"/>
          </mxGeometry>
        </mxCell>
        <mxCell id="149" value="" style="edgeStyle=none;endArrow=none;strokeWidth=2" parent="1" edge="1">
          <mxGeometry width="100" height="100" relative="1" as="geometry">
            <mxPoint x="320" y="240.49999999999994" as="sourcePoint"/>
            <mxPoint x="380.0000000000001" y="240.49999999999994" as="targetPoint"/>
          </mxGeometry>
        </mxCell>
        <mxCell id="150" value="" style="edgeStyle=none;endArrow=none;strokeWidth=2" parent="1" edge="1">
          <mxGeometry width="100" height="100" relative="1" as="geometry">
            <mxPoint x="360" y="210.49999999999991" as="sourcePoint"/>
            <mxPoint x="420" y="210.49999999999991" as="targetPoint"/>
          </mxGeometry>
        </mxCell>
        <mxCell id="152" value="" style="edgeStyle=none;endArrow=none;strokeWidth=2" parent="1" edge="1">
          <mxGeometry width="100" height="100" relative="1" as="geometry">
            <mxPoint x="390.0000000000001" y="259.99999999999994" as="sourcePoint"/>
            <mxPoint x="450" y="259.99999999999994" as="targetPoint"/>
          </mxGeometry>
        </mxCell>
        <mxCell id="153" value="" style="edgeStyle=none;endArrow=none;strokeWidth=2" parent="1" edge="1">
          <mxGeometry width="100" height="100" relative="1" as="geometry">
            <mxPoint x="420" y="320.49999999999994" as="sourcePoint"/>
            <mxPoint x="480.0000000000001" y="320.49999999999994" as="targetPoint"/>
          </mxGeometry>
        </mxCell>
        <mxCell id="155" value="" style="edgeStyle=none;endArrow=none;strokeWidth=2" parent="1" edge="1">
          <mxGeometry width="100" height="100" relative="1" as="geometry">
            <mxPoint x="400.0000000000001" y="360.49999999999994" as="sourcePoint"/>
            <mxPoint x="460" y="360.49999999999994" as="targetPoint"/>
          </mxGeometry>
        </mxCell>
        <mxCell id="157" value="" style="edgeStyle=none;endArrow=none;strokeWidth=2" parent="1" edge="1">
          <mxGeometry width="100" height="100" relative="1" as="geometry">
            <mxPoint x="469.9999999999999" y="340.49999999999994" as="sourcePoint"/>
            <mxPoint x="530" y="340.49999999999994" as="targetPoint"/>
          </mxGeometry>
        </mxCell>
        <mxCell id="158" value="" style="edgeStyle=none;endArrow=none;strokeWidth=2" parent="1" edge="1">
          <mxGeometry width="100" height="100" relative="1" as="geometry">
            <mxPoint x="450" y="380.49999999999994" as="sourcePoint"/>
            <mxPoint x="510" y="380.49999999999994" as="targetPoint"/>
          </mxGeometry>
        </mxCell>
        <mxCell id="204" value="Area 3" style="whiteSpace=wrap;strokeWidth=2" parent="1" vertex="1">
          <mxGeometry x="510.8333333333331" y="110.52777777777752" width="120" height="60" as="geometry"/>
        </mxCell>
        <mxCell id="205" value="Area 6" style="whiteSpace=wrap;strokeWidth=2" parent="1" vertex="1">
          <mxGeometry x="595.833333333333" y="402.02777777777754" width="120" height="60" as="geometry"/>
        </mxCell>
        <mxCell id="206" value="" style="edgeStyle=none;exitX=0.5;exitY=1;strokeWidth=3" parent="1" source="204" edge="1">
          <mxGeometry width="100" height="100" relative="1" as="geometry">
            <mxPoint x="570.8333333333331" y="190.52777777777752" as="sourcePoint"/>
            <mxPoint x="630.8333333333331" y="280.52777777777754" as="targetPoint"/>
          </mxGeometry>
        </mxCell>
        <mxCell id="207" value="" style="edgeStyle=none;exitX=0.5;exitY=0;strokeWidth=3" parent="1" edge="1">
          <mxGeometry width="100" height="100" relative="1" as="geometry">
            <mxPoint x="655.8333333333333" y="402.02777777777754" as="sourcePoint"/>
            <mxPoint x="715.8333333333331" y="282.02777777777754" as="targetPoint"/>
          </mxGeometry>
        </mxCell>
        <mxCell id="y4cOML1IIUv3ZgMLD3m_-264" value="" style="edgeStyle=none;endArrow=none;strokeWidth=2" edge="1" parent="1">
          <mxGeometry width="100" height="100" relative="1" as="geometry">
            <mxPoint x="290" y="190.4999999999999" as="sourcePoint"/>
            <mxPoint x="350" y="190.4999999999999" as="targetPoint"/>
          </mxGeometry>
        </mxCell>
        <mxCell id="y4cOML1IIUv3ZgMLD3m_-265" value="" style="edgeStyle=none;endArrow=none;strokeWidth=2" edge="1" parent="1">
          <mxGeometry width="100" height="100" relative="1" as="geometry">
            <mxPoint x="550" y="240.5" as="sourcePoint"/>
            <mxPoint x="610" y="240.5" as="targetPoint"/>
          </mxGeometry>
        </mxCell>
        <mxCell id="y4cOML1IIUv3ZgMLD3m_-266" value="" style="edgeStyle=none;endArrow=none;strokeWidth=2" edge="1" parent="1">
          <mxGeometry width="100" height="100" relative="1" as="geometry">
            <mxPoint x="590" y="210.4999999999999" as="sourcePoint"/>
            <mxPoint x="650" y="210.4999999999999" as="targetPoint"/>
          </mxGeometry>
        </mxCell>
        <mxCell id="y4cOML1IIUv3ZgMLD3m_-267" value="" style="edgeStyle=none;endArrow=none;strokeWidth=2" edge="1" parent="1">
          <mxGeometry width="100" height="100" relative="1" as="geometry">
            <mxPoint x="620" y="260" as="sourcePoint"/>
            <mxPoint x="680" y="260" as="targetPoint"/>
          </mxGeometry>
        </mxCell>
        <mxCell id="y4cOML1IIUv3ZgMLD3m_-268" value="" style="edgeStyle=none;endArrow=none;strokeWidth=2" edge="1" parent="1">
          <mxGeometry width="100" height="100" relative="1" as="geometry">
            <mxPoint x="520" y="190.4999999999999" as="sourcePoint"/>
            <mxPoint x="580" y="190.4999999999999" as="targetPoint"/>
          </mxGeometry>
        </mxCell>
        <mxCell id="y4cOML1IIUv3ZgMLD3m_-269" value="" style="edgeStyle=none;endArrow=none;strokeWidth=2" edge="1" parent="1">
          <mxGeometry width="100" height="100" relative="1" as="geometry">
            <mxPoint x="640" y="320.5" as="sourcePoint"/>
            <mxPoint x="700" y="320.5" as="targetPoint"/>
          </mxGeometry>
        </mxCell>
        <mxCell id="y4cOML1IIUv3ZgMLD3m_-270" value="" style="edgeStyle=none;endArrow=none;strokeWidth=2" edge="1" parent="1">
          <mxGeometry width="100" height="100" relative="1" as="geometry">
            <mxPoint x="620" y="360.5" as="sourcePoint"/>
            <mxPoint x="680" y="360.5" as="targetPoint"/>
          </mxGeometry>
        </mxCell>
        <mxCell id="y4cOML1IIUv3ZgMLD3m_-271" value="" style="edgeStyle=none;endArrow=none;strokeWidth=2" edge="1" parent="1">
          <mxGeometry width="100" height="100" relative="1" as="geometry">
            <mxPoint x="690" y="340.5" as="sourcePoint"/>
            <mxPoint x="750" y="340.5" as="targetPoint"/>
          </mxGeometry>
        </mxCell>
        <mxCell id="y4cOML1IIUv3ZgMLD3m_-272" value="" style="edgeStyle=none;endArrow=none;strokeWidth=2" edge="1" parent="1">
          <mxGeometry width="100" height="100" relative="1" as="geometry">
            <mxPoint x="670" y="380.5" as="sourcePoint"/>
            <mxPoint x="730" y="380.5" as="targetPoint"/>
          </mxGeometry>
        </mxCell>
        <mxCell id="y4cOML1IIUv3ZgMLD3m_-273" value="Area 1" style="whiteSpace=wrap;strokeWidth=2" vertex="1" parent="1">
          <mxGeometry x="70" y="110.49999999999994" width="120" height="60" as="geometry"/>
        </mxCell>
        <mxCell id="y4cOML1IIUv3ZgMLD3m_-274" value="" style="edgeStyle=none;exitX=0.5;exitY=1;strokeWidth=3" edge="1" parent="1" source="y4cOML1IIUv3ZgMLD3m_-273">
          <mxGeometry width="100" height="100" relative="1" as="geometry">
            <mxPoint x="130" y="190.49999999999991" as="sourcePoint"/>
            <mxPoint x="190" y="280.5" as="targetPoint"/>
          </mxGeometry>
        </mxCell>
        <mxCell id="y4cOML1IIUv3ZgMLD3m_-275" value="" style="edgeStyle=none;endArrow=none;strokeWidth=2" edge="1" parent="1">
          <mxGeometry width="100" height="100" relative="1" as="geometry">
            <mxPoint x="110" y="241" as="sourcePoint"/>
            <mxPoint x="170" y="241" as="targetPoint"/>
          </mxGeometry>
        </mxCell>
        <mxCell id="y4cOML1IIUv3ZgMLD3m_-276" value="" style="edgeStyle=none;endArrow=none;strokeWidth=2" edge="1" parent="1">
          <mxGeometry width="100" height="100" relative="1" as="geometry">
            <mxPoint x="150" y="210.9999999999999" as="sourcePoint"/>
            <mxPoint x="210" y="210.9999999999999" as="targetPoint"/>
          </mxGeometry>
        </mxCell>
        <mxCell id="y4cOML1IIUv3ZgMLD3m_-277" value="" style="edgeStyle=none;endArrow=none;strokeWidth=2" edge="1" parent="1">
          <mxGeometry width="100" height="100" relative="1" as="geometry">
            <mxPoint x="180" y="260.5" as="sourcePoint"/>
            <mxPoint x="240" y="260.5" as="targetPoint"/>
          </mxGeometry>
        </mxCell>
        <mxCell id="y4cOML1IIUv3ZgMLD3m_-278" value="" style="edgeStyle=none;endArrow=none;strokeWidth=2" edge="1" parent="1">
          <mxGeometry width="100" height="100" relative="1" as="geometry">
            <mxPoint x="80" y="190.9999999999999" as="sourcePoint"/>
            <mxPoint x="140" y="190.9999999999999" as="targetPoint"/>
          </mxGeometry>
        </mxCell>
        <mxCell id="y4cOML1IIUv3ZgMLD3m_-279" value="Area 4" style="whiteSpace=wrap;strokeWidth=2" vertex="1" parent="1">
          <mxGeometry x="160" y="400.49999999999994" width="120" height="60" as="geometry"/>
        </mxCell>
        <mxCell id="y4cOML1IIUv3ZgMLD3m_-280" value="" style="edgeStyle=none;exitX=0.5;exitY=0;strokeWidth=3" edge="1" parent="1">
          <mxGeometry width="100" height="100" relative="1" as="geometry">
            <mxPoint x="220" y="400.5" as="sourcePoint"/>
            <mxPoint x="280" y="280.5" as="targetPoint"/>
          </mxGeometry>
        </mxCell>
        <mxCell id="y4cOML1IIUv3ZgMLD3m_-281" value="" style="edgeStyle=none;endArrow=none;strokeWidth=2" edge="1" parent="1">
          <mxGeometry width="100" height="100" relative="1" as="geometry">
            <mxPoint x="200" y="320.5" as="sourcePoint"/>
            <mxPoint x="260" y="320.5" as="targetPoint"/>
          </mxGeometry>
        </mxCell>
        <mxCell id="y4cOML1IIUv3ZgMLD3m_-282" value="" style="edgeStyle=none;endArrow=none;strokeWidth=2" edge="1" parent="1">
          <mxGeometry width="100" height="100" relative="1" as="geometry">
            <mxPoint x="180" y="360.5" as="sourcePoint"/>
            <mxPoint x="240" y="360.5" as="targetPoint"/>
          </mxGeometry>
        </mxCell>
        <mxCell id="y4cOML1IIUv3ZgMLD3m_-283" value="" style="edgeStyle=none;endArrow=none;strokeWidth=2" edge="1" parent="1">
          <mxGeometry width="100" height="100" relative="1" as="geometry">
            <mxPoint x="250" y="340.5" as="sourcePoint"/>
            <mxPoint x="310" y="340.5" as="targetPoint"/>
          </mxGeometry>
        </mxCell>
        <mxCell id="y4cOML1IIUv3ZgMLD3m_-284" value="" style="edgeStyle=none;endArrow=none;strokeWidth=2" edge="1" parent="1">
          <mxGeometry width="100" height="100" relative="1" as="geometry">
            <mxPoint x="230" y="380.5" as="sourcePoint"/>
            <mxPoint x="290" y="380.5" as="targetPoint"/>
          </mxGeometry>
        </mxCell>
      </root>
    </mxGraphModel>
  </diagram>
</mxfile>
